# xmcd CD database file
#
# Track frame offsets:
#	150
#	12709
#	29225
#	42664
#	57892
#	74445
#	88629
#	102970
#	119537
#	131282
#	147945
#	158002
#	169907
#	186532
#	199482
#	213145
#	228760
#	242500
#	257050
#	268162
#	282950
#	295705
#	312012
#
# Disc length: 4353 seconds
#
# Revision: 0
# Processed by: cddbd v1.5.2PL0 Copyright (c) Steve Scherf et al.
# Submitted via: CDex 1.70beta2
#
DISCID=6010ff17
DTITLE=Jones Classic Country - Jones Classic Country CCC-620
DYEAR=0000
DGENRE=Country
TTITLE0=Merle Haggard/If We Make It Through December
TTITLE1=Merle Haggard/What Am I Gonna Do (With The Rest Of My Life)
TTITLE2=Tom T Hall/I Like Beer
TTITLE3=Emmylou Harris/Blue Kentucky Girl
TTITLE4=Emmylou Harris/Make Believe
TTITLE5=Emmylou Harris/One Of These Days
TTITLE6=Emmylou Harris/Sweet Dreams (Of You)
TTITLE7=Waylon Jennings/Bob Wills Is Still The King
TTITLE8=Waylon Jennings/Rainy Day Woman
TTITLE9=Waylon Jennings/Rose In Paradise
TTITLE10=Waylon Jennings/Theme From "The Dukes Of Hazzard"
TTITLE11=Barbara Mandrell/Crackers
TTITLE12=Barbara Mandrell/Fast Lane And Country Roads
TTITLE13=Barbara Mandrell/One Of A Kind Pair Of Fools
TTITLE14=Ronnie Milsap/(I'd Be) A Legend In My Time
TTITLE15=Oak Ridge Boys/I Wish You Could Have Turned My Head (And Left My Heart Alone)
TTITLE16=Dolly Parton/Here You Come Again
TTITLE17=Dolly Parton/It's All Wrong, But It's All Right
TTITLE18=Dolly Parton/Love Is Like A Butterfly
TTITLE19=Dolly Parton/Sweet Summer Lovin'
TTITLE20=Charley Pride/Night Games
TTITLE21=Charley Pride/You're My Jamaica
TTITLE22=Jeanne Pruett/Satin Sheets
EXTD=YEAR: 0000
EXTT0=
EXTT1=
EXTT2=
EXTT3=
EXTT4=
EXTT5=
EXTT6=
EXTT7=
EXTT8=
EXTT9=
EXTT10=
EXTT11=
EXTT12=
EXTT13=
EXTT14=
EXTT15=
EXTT16=
EXTT17=
EXTT18=
EXTT19=
EXTT20=
EXTT21=
EXTT22=
PLAYORDER=
